:FULLY-SPECIFIED
:FORCE-ALL-JOINTS-BE-3DOF
:DEGREES
68
root 6.04396 16.7458 -27.9713 10.8159 3.47534 -3.71028
lfemur -33.5053 12.2951 -17.1159
ltibia 50.5942 -0 0
lfoot -21.5781 -11.441 0.174987
ltoes 31.4125 -0 0
rfemur -16.6591 -2.4607 21.401
rtibia 31.7514 -0 0
rfoot -27.4654 -16.2751 -0.0715042
rtoes -9.77352 0 0
lowerback -3.88701 2.39299 3.35063
upperback -1.5381 3.07077 -0.22902
thorax 0.773307 1.52994 -1.99
lowerneck -9.82275 -2.6124 2.12536
upperneck -5.24964 -3.63043 2.16332
head -0.0154947 -1.8251 0.208712
lclavicle -1.25048e-014 -7.7526e-015 0
lhumerus -41.03 -12.5931 94.1314
lradius 44.3792 -0 0
lwrist 8.30723 0 0
lhand -9.73429 2.47612 0.0135797
lfingers 7.12502 -0 0
lthumb 16.2372 31.7863 0.00439376
rclavicle -1.25048e-014 -7.7526e-015 0
rhumerus -39.9624 0.81331 -91.2806
rradius 43.0314 -0 0
rwrist 6.23168 0 0
rhand -24.1189 -21.2001 0.0612469
rfingers 7.12502 -0 0
rthumb 2.36396 -51.1726 0.0537299
69
root 6.07777 16.7404 -27.9332 10.7985 3.668 -3.83752
lfemur -33.6874 11.7665 -16.6711
ltibia 50.5335 -0 0
lfoot -21.3821 -11.0235 0.200379
ltoes 30.5593 -0 0
rfemur -16.3566 -2.90963 21.3985
rtibia 32.0042 -0 0
rfoot -27.5316 -15.9584 -0.101272
rtoes -10.2975 0 0
lowerback -3.89821 2.45056 3.39499
upperback -1.59102 3.14509 -0.17722
thorax 0.724444 1.56639 -1.96612
lowerneck -9.81402 -2.70142 2.15571
upperneck -5.21837 -3.75235 2.14213
head -0.00943789 -1.88587 0.192776
lclavicle -1.25048e-014 -7.7526e-015 0
lhumerus -41.2051 -12.3312 94.0376
lradius 44.4842 -0 0
lwrist 8.47769 0 0
lhand -9.42564 2.48963 0.01626
lfingers 7.12502 -0 0
lthumb 16.534 31.7695 0.00540252
rclavicle -1.25048e-014 -7.7526e-015 0
rhumerus -39.9961 0.841196 -91.072
rradius 43.2176 -0 0
rwrist 6.02649 0 0
rhand -23.9293 -20.9489 0.0737202
rfingers 7.12502 -0 0
rthumb 2.54763 -50.9241 0.0634585
70
root 6.11158 16.735 -27.8952 10.7809 3.86425 -3.97264
lfemur -33.8669 11.1805 -16.1952
ltibia 50.4405 -0 0
lfoot -21.1996 -10.5461 0.222165
ltoes 29.6519 -0 0
rfemur -16.0241 -3.37196 21.3918
rtibia 32.2717 -0 0
rfoot -27.6077 -15.6275 -0.133966
rtoes -10.8123 0 0
lowerback -3.91556 2.51368 3.43519
upperback -1.64955 3.22665 -0.119609
thorax 0.672587 1.60646 -1.93413
lowerneck -9.80393 -2.79547 2.1893
upperneck -5.18044 -3.88145 2.11655
head -0.00174859 -1.95019 0.174682
lclavicle -1.25048e-014 -7.7526e-015 0
lhumerus -41.3947 -12.0499 93.9419
lradius 44.5851 -0 0
lwrist 8.65487 0 0
lhand -9.09873 2.51106 0.0188261
lfingers 7.12502 -0 0
lthumb 16.8483 31.759 0.0064107
rclavicle -1.25048e-014 -7.7526e-015 0
rhumerus -40.0335 0.86127 -90.8478
rradius 43.4076 -0 0
rwrist 5.81596 0 0
rhand -23.735 -20.6773 0.0858874
rfingers 7.12502 -0 0
rthumb 2.73595 -50.6558 0.0726383
71
root 6.14539 16.7297 -27.8571 10.7619 4.06352 -4.11437
lfemur -34.0432 10.5433 -15.6919
ltibia 50.3169 -0 0
lfoot -21.0295 -10.0151 0.240331
ltoes 28.6972 -0 0
rfemur -15.6674 -3.84588 21.3799
rtibia 32.5525 -0 0
rfoot -27.691 -15.2829 -0.168671
rtoes -11.3176 0 0
lowerback -3.93757 2.58145 3.47113
upperback -1.7127 3.31434 -0.0567494
thorax 0.617955 1.64961 -1.89451
lowerneck -9.79274 -2.89384 2.22572
upperneck -5.13616 -4.01673 2.08691
head 0.00755315 -2.01757 0.15464
lclavicle -1.25048e-014 -7.7526e-015 0
lhumerus -41.5969 -11.7517 93.8444
lradius 44.6823 -0 0
lwrist 8.83793 0 0
lhand -8.75511 2.53994 0.0212284
lfingers 7.12502 -0 0
lthumb 17.1786 31.7542 0.00739189
rclavicle -1.25048e-014 -7.7526e-015 0
rhumerus -40.0743 0.873822 -90.608
rradius 43.6017 -0 0
rwrist 5.60072 0 0
rhand -23.5353 -20.3875 0.0975933
rfingers 7.12502 -0 0
rthumb 2.92953 -50.3697 0.0811854
72
root 6.1792 16.7243 -27.819 10.7406 4.2652 -4.26144
lfemur -34.216 9.86115 -15.1651
ltibia 50.1645 -0 0
lfoot -20.8708 -9.43663 0.254919
ltoes 27.7024 -0 0
rfemur -15.2925 -4.32953 21.362
rtibia 32.8455 -0 0
rfoot -27.7789 -14.9253 -0.2045
rtoes -11.8132 0 0
lowerback -3.96273 2.65298 3.50273
upperback -1.7795 3.40706 0.0108017
thorax 0.560769 1.69528 -1.84772
lowerneck -9.78072 -2.99582 2.26456
upperneck -5.0858 -4.15719 2.05354
head 0.0184468 -2.08751 0.132862
lclavicle -1.25048e-014 -7.7526e-015 0
lhumerus -41.8101 -11.4391 93.7452
lradius 44.7761 -0 0
lwrist 9.02599 0 0
lhand -8.39632 2.57578 0.0234173
lfingers 7.12502 -0 0
lthumb 17.5235 31.755 0.00831835
rclavicle -1.25048e-014 -7.7526e-015 0
rhumerus -40.118 0.879142 -90.3527
rradius 43.8001 -0 0
rwrist 5.3814 0 0
rhand -23.3295 -20.0816 0.108686
rfingers 7.12502 -0 0
rthumb 3.12895 -50.0678 0.0890182
